HIERARCHY
ROOT Hips
{
	OFFSET -0.179506 -22.333345 2.821913
	CHANNELS 6 Xposition Yposition Zposition Zrotation Yrotation Xrotation 
	JOINT LeftUpLeg
	{
		OFFSET 6.951974 -9.140623 -0.681533
		CHANNELS 3 Zrotation Yrotation Xrotation
		JOINT LeftLeg
		{
			OFFSET 3.427654 -37.519855 -0.449580
			CHANNELS 3 Zrotation Yrotation Xrotation
			JOINT LeftFoot
			{
				OFFSET -1.359570 -39.796059 -4.369333
				CHANNELS 3 Zrotation Yrotation Xrotation
				JOINT LeftToe
				{
					OFFSET 2.635814 -5.579078 11.928840
					CHANNELS 3 Zrotation Yrotation Xrotation
					End Site
					{
						OFFSET 0.000000 0.000000 0.000000
					}
				}
			}
		}
	}
	JOINT RightUpLeg
	{
		OFFSET -6.767048 -9.052170 -0.431982
		CHANNELS 3 Zrotation Yrotation Xrotation
		JOINT RightLeg
		{
			OFFSET -3.829005 -38.256897 -0.885003
			CHANNELS 3 Zrotation Yrotation Xrotation
			JOINT RightFoot
			{
				OFFSET 1.577377 -39.841461 -4.231180
				CHANNELS 3 Zrotation Yrotation Xrotation
				JOINT RightToe
				{
					OFFSET -2.537174 -4.814398 12.334795
					CHANNELS 3 Zrotation Yrotation Xrotation
					End Site
					{
						OFFSET 0.000000 0.000000 0.000000
					}
				}
			}
		}
	}
	JOINT Spine
	{
		OFFSET -0.253288 10.896323 -2.669631
		CHANNELS 3 Zrotation Yrotation Xrotation
		JOINT Spine1
		{
			OFFSET 0.548704 13.518043 0.109247
			CHANNELS 3 Zrotation Yrotation Xrotation
			JOINT Spine2
			{
				OFFSET 0.145701 5.292222 2.542457
				CHANNELS 3 Zrotation Yrotation Xrotation
				JOINT Neck
				{
					OFFSET -0.277840 21.387037 -4.285703
					CHANNELS 3 Zrotation Yrotation Xrotation
					JOINT Head
					{
						OFFSET 0.515184 6.496960 5.134897
						CHANNELS 3 Zrotation Yrotation Xrotation
						End Site
						{
							OFFSET 0.000000 0.000000 0.000000
						}
					}
				}
				JOINT LeftShoulder
				{
					OFFSET 7.884473 12.174932 -3.408961
					CHANNELS 3 Zrotation Yrotation Xrotation
					JOINT LeftArm
					{
						OFFSET 9.097692 3.046888 -0.886815
						CHANNELS 3 Zrotation Yrotation Xrotation
						JOINT LeftForeArm
						{
							OFFSET 25.961220 -1.277207 -2.745643
							CHANNELS 3 Zrotation Yrotation Xrotation
							JOINT LeftHand
							{
								OFFSET 24.923361 0.898606 -0.117091
								CHANNELS 3 Zrotation Yrotation Xrotation
								End Site
								{
									OFFSET 0.000000 0.000000 0.000000
								}
							}
						}
					}
				}
				JOINT RightShoulder
				{
					OFFSET -8.175920 11.883285 -3.861528
					CHANNELS 3 Zrotation Yrotation Xrotation
					JOINT RightArm
					{
						OFFSET -9.601238 3.255117 -0.914307
						CHANNELS 3 Zrotation Yrotation Xrotation
						JOINT RightForeArm
						{
							OFFSET -25.374195 -1.332924 -2.140099
							CHANNELS 3 Zrotation Yrotation Xrotation
							JOINT RightHand
							{
								OFFSET -25.529810 0.777228 -0.555919
								CHANNELS 3 Zrotation Yrotation Xrotation
								End Site
								{
									OFFSET 0.000000 0.000000 0.000000
								}
							}
						}
					}
				}
			}
		}
	}
}
MOTION
Frames: 17
Frame Time: 0.033333
5.587173 0.359916 99.904953 178.567910 -0.218948 84.715944 5.321746 3.249732 9.941961 -3.320308 -2.459977 -4.263126 3.286890 7.635125 -6.049956 nan nan nan -4.795262 -5.244675 8.444786 4.708998 -2.375349 -4.077802 5.590965 -3.375355 -0.956964 nan nan nan -0.457607 1.476446 7.184968 1.139356 -2.597285 2.433670 1.479445 -0.476305 2.064596 -0.761358 -0.622284 -2.184305 0.687291 -3.217935 0.990907 -23.467598 1.513724 5.260545 -61.693784 -6.766146 10.296645 6.628505 -26.787411 14.375227 -6.670630 -8.864064 -10.084854 24.008800 4.308987 5.313663 59.648934 6.751787 12.714038 -7.064615 20.203935 0.561177 5.843329 4.269921 -8.806054 
5.594954 0.359401 99.886887 178.551795 -0.186864 84.801746 5.359414 3.221031 9.882324 -3.313913 -2.448554 -4.347144 3.145483 7.691818 -5.908063 nan nan nan -4.744431 -5.157264 8.416285 4.715998 -2.316123 -4.170484 5.794435 -3.494107 -0.934828 nan nan nan -0.391297 1.481904 6.993496 1.101725 -2.553509 2.578699 1.462437 -0.494177 2.071789 -0.831480 -0.603292 -2.088647 0.648959 -3.084136 0.836079 -23.386785 1.561530 5.367465 -61.787532 -6.779083 10.389288 6.820587 -27.066081 14.432876 -6.810619 -8.839572 -10.293497 23.986325 4.226744 5.241515 59.674976 6.737173 12.829835 -7.142392 20.302929 0.626965 6.334064 3.986354 -8.963052 
5.594467 0.363306 99.881813 178.528526 -0.158805 84.785082 5.388085 3.218889 9.935186 -3.278752 -2.436204 -4.414967 3.080455 7.719578 -5.832335 nan nan nan -4.700789 -5.137420 8.460922 4.682779 -2.282840 -4.210194 5.854276 -3.507668 -0.951308 nan nan nan -0.342225 1.474188 7.012232 1.084662 -2.545615 2.607707 1.465622 -0.492115 2.066740 -0.830810 -0.616216 -2.102470 0.637717 -3.071059 0.812542 -23.359207 1.579896 5.368432 -61.828013 -6.767498 10.415691 6.867241 -27.123605 14.467167 -6.826070 -8.810780 -10.320138 23.943990 4.227257 5.211471 59.687083 6.740159 12.848762 -7.139282 20.310911 0.639437 6.403128 3.948733 -8.986569 
5.591438 0.361472 99.877342 178.534390 -0.157486 84.788532 5.388127 3.218254 9.926858 -3.278397 -2.437189 -4.411245 3.073363 7.718043 -5.828552 nan nan nan -4.699438 -5.140317 8.455588 4.681798 -2.291007 -4.205395 5.854519 -3.517041 -0.958272 nan nan nan -0.338639 1.471493 7.016691 1.083277 -2.547241 2.608534 1.464245 -0.492280 2.066893 -0.828358 -0.620245 -2.103712 0.639444 -3.072668 0.809055 -23.359931 1.576314 5.371634 -61.823915 -6.769546 10.412709 6.867994 -27.116150 14.454842 -6.822466 -8.809216 -10.324773 23.943557 4.231476 5.212223 59.686008 6.738646 12.850720 -7.136070 20.306604 0.641941 6.405026 3.943962 -8.983913 
5.575616 0.355383 99.819695 178.671664 -0.179120 84.650534 5.576114 3.006422 9.970798 -3.764621 -2.196726 -4.251367 3.770840 7.435209 -5.941105 nan nan nan -4.897708 -5.199360 8.663132 5.091795 -2.718591 -4.261470 5.585666 -3.450067 -1.056369 nan nan nan -0.413765 1.411265 7.263120 0.942660 -2.715676 2.484216 1.738178 -0.406276 1.566786 -1.826347 1.496224 -0.571272 0.609028 0.155836 -0.414171 -22.952667 1.240967 6.253103 -62.621300 -6.836284 10.026791 7.421781 -26.780151 14.629017 -6.764662 -9.761010 -11.629286 23.297260 4.477402 6.318984 60.331094 7.055795 12.492241 -7.284399 20.124170 0.819623 6.563213 4.696371 -10.045359 
5.588630 0.339148 99.851906 178.744327 -0.173314 84.834107 5.509003 2.857650 9.716985 -3.679081 -2.170305 -4.214538 3.500030 7.602188 -5.985077 nan nan nan -4.843899 -5.106274 8.478308 5.058835 -2.569363 -4.300336 5.843718 -3.748844 -0.959650 nan nan nan -0.514356 1.396803 6.998725 1.092619 -2.712758 2.484516 1.506665 -0.429096 2.246606 -0.965809 -0.157157 -1.929418 1.494371 -2.873167 1.152162 -22.919700 1.540869 5.554116 -62.667987 -7.152136 10.538655 7.250044 -26.319040 13.825766 -5.929188 -10.128572 -12.064597 23.881709 4.272600 5.317312 59.817478 6.938579 12.963231 -6.937778 19.816387 0.679648 6.373151 4.812892 -10.051064 
5.602019 0.313749 99.856644 178.814035 -0.160304 84.860844 5.543088 2.986884 9.589373 -3.647513 -2.208779 -4.073081 3.422563 7.490977 -6.127914 nan nan nan -4.800510 -5.117735 8.433734 5.020810 -2.632191 -4.283880 5.901275 -3.764622 -0.950087 nan nan nan -0.555231 1.360524 7.058749 1.101060 -2.721568 2.403591 1.522552 -0.456091 2.282661 -0.995054 -0.055772 -2.116422 1.602859 -2.929593 1.370216 -22.851561 1.534699 5.511121 -62.835581 -7.187014 10.572470 7.186741 -26.114057 13.437698 -5.325007 -10.206079 -12.581161 23.943639 4.241166 5.215693 59.767841 6.964660 13.016162 -6.771991 19.706734 0.603306 6.248015 4.759290 -10.318273 
5.609580 0.312510 99.862167 178.859664 -0.156982 84.903434 5.585894 3.109346 9.487038 -3.669537 -2.265152 -3.960263 3.414804 7.408769 -6.266071 nan nan nan -4.774543 -5.123846 8.405264 4.972696 -2.640268 -4.285854 5.920053 -3.761124 -0.882167 nan nan nan -0.585513 1.331109 7.031370 1.117142 -2.731033 2.396158 1.526307 -0.465187 2.294074 -1.003114 -0.033324 -2.134546 1.674930 -2.936551 1.324146 -22.868578 1.519907 5.507905 -62.837673 -7.160991 10.570919 7.133245 -26.107230 13.380412 -5.078342 -10.193171 -12.704540 23.977294 4.216892 5.173047 59.760163 6.986818 12.997006 -6.723615 19.726278 0.588681 6.140993 4.581816 -10.385306 
5.611083 0.306491 99.866379 178.892050 -0.178788 84.953226 5.574298 3.181436 9.389123 -3.688880 -2.310744 -3.892404 3.493650 7.363363 -6.311639 nan nan nan -4.779852 -5.110394 8.349817 4.936335 -2.633271 -4.276743 5.907895 -3.750364 -0.783672 nan nan nan -0.628883 1.284129 6.999670 1.134196 -2.732876 2.382657 1.513654 -0.455388 2.326996 -1.025244 -0.024980 -2.177847 1.702740 -2.959950 1.304269 -22.891215 1.539657 5.499257 -62.828958 -7.175982 10.576476 7.117055 -26.113931 13.339319 -5.005959 -10.244344 -12.751922 23.998519 4.200039 5.149353 59.775997 7.019610 12.998554 -6.738194 19.732203 0.559842 6.129053 4.483127 -10.411054 
5.614919 0.295742 99.869911 178.946815 -0.198919 84.961493 5.566243 3.312686 9.335015 -3.684044 -2.413697 -3.848594 3.550227 7.279783 -6.328552 nan nan nan -4.816058 -5.162233 8.338125 4.967163 -2.715883 -4.261163 5.881479 -3.701945 -0.723244 nan nan nan -0.683203 1.252892 7.050424 1.167977 -2.767814 2.393704 1.610084 -0.476418 2.282621 -0.959938 -0.141525 -1.984287 1.399162 -2.642111 0.874086 -22.989527 1.562792 5.466497 -62.836971 -7.155691 10.502010 7.059815 -26.126891 13.332420 -4.958570 -10.264524 -12.831055 23.796196 4.216199 5.172020 59.913880 7.049836 12.967087 -6.744683 19.782299 0.590754 6.163568 4.457254 -10.419145 
5.617582 0.290041 99.879196 178.961795 -0.216366 84.965952 5.543983 3.369518 9.310046 -3.668079 -2.461026 -3.819969 3.521193 7.247011 -6.327781 nan nan nan -4.844579 -5.161129 8.319879 4.992175 -2.757038 -4.247164 5.843838 -3.708774 -0.712471 nan nan nan -0.722417 1.240978 7.056867 1.171504 -2.775833 2.406636 1.640933 -0.486995 2.273650 -0.916294 -0.170175 -1.939974 1.270006 -2.550612 0.760174 -23.012558 1.566646 5.448710 -62.830549 -7.163184 10.479075 7.023024 -26.097087 13.351660 -5.004874 -10.280305 -12.872550 23.755977 4.236867 5.199120 59.953793 7.082237 12.948801 -6.765329 19.784938 0.547433 6.179289 4.461903 -10.439734 
5.613367 0.290536 99.883659 178.957078 -0.220513 84.974094 5.522258 3.366783 9.299649 -3.656512 -2.457793 -3.810159 3.527335 7.265324 -6.336593 nan nan nan -4.849106 -5.138176 8.310943 4.982725 -2.750234 -4.246146 5.866116 -3.704427 -0.694007 nan nan nan -0.713720 1.238831 7.060854 1.166121 -2.771499 2.397259 1.632523 -0.487298 2.277843 -0.907685 -0.169637 -1.934421 1.261817 -2.546348 0.747237 -23.018267 1.569142 5.442405 -62.819687 -7.154389 10.487027 7.038677 -26.093743 13.400227 -5.065941 -10.249629 -12.793237 23.747623 4.234677 5.196214 59.958599 7.080502 12.948050 -6.762060 19.786344 0.530165 6.190574 4.453080 -10.439920 
5.609522 0.289585 99.884666 178.950971 -0.225925 84.979007 5.514015 3.372817 9.299151 -3.653061 -2.470277 -3.814748 3.535035 7.259506 -6.341700 nan nan nan -4.845321 -5.119718 8.308478 4.968642 -2.740894 -4.250130 5.892982 -3.704682 -0.677669 nan nan nan -0.705253 1.241283 7.066308 1.164040 -2.765804 2.403997 1.624178 -0.491706 2.283943 -0.898668 -0.174198 -1.945754 1.254988 -2.547231 0.727614 -23.025145 1.561955 5.440866 -62.808516 -7.153629 10.490578 7.053810 -26.087070 13.433840 -5.115511 -10.205909 -12.727537 23.739878 4.233523 5.184962 59.970450 7.083921 12.947203 -6.769320 19.800889 0.519893 6.199254 4.434735 -10.439926 
5.608997 0.285475 99.885422 178.947084 -0.216767 84.990362 5.529629 3.365566 9.287204 -3.660000 -2.465280 -3.818221 3.521048 7.249712 -6.322784 nan nan nan -4.827774 -5.104851 8.293060 4.968394 -2.740504 -4.251405 5.909887 -3.730259 -0.673940 nan nan nan -0.690105 1.240740 7.068866 1.159364 -2.764817 2.412087 1.606538 -0.495255 2.291040 -0.891633 -0.171714 -1.987760 1.276876 -2.570399 0.742013 -23.024964 1.556842 5.447641 -62.799040 -7.156955 10.494208 7.070784 -26.097084 13.442799 -5.158074 -10.181066 -12.703463 23.753935 4.233010 5.173743 59.974941 7.086120 12.958453 -6.786013 19.836767 0.530480 6.221640 4.407975 -10.437484 
5.611912 0.271590 99.882225 178.949957 -0.200523 85.034196 5.556679 3.343021 9.221401 -3.674602 -2.423359 -3.803877 3.451982 7.246345 -6.288947 nan nan nan -4.792513 -5.066399 8.239275 4.946542 -2.701424 -4.262323 5.938257 -3.789488 -0.690274 nan nan nan -0.650198 1.221907 7.066957 1.131861 -2.765760 2.393225 1.539013 -0.495134 2.330048 -0.892904 -0.130981 -2.211885 1.382384 -2.714595 0.935376 -22.987325 1.564494 5.445040 -62.760525 -7.169855 10.522567 7.069705 -26.127254 13.475325 -5.179762 -10.192415 -12.668975 23.829599 4.212668 5.123196 59.959452 7.085153 13.025501 -6.786017 19.911340 0.607988 6.237264 4.359939 -10.411593 
5.610630 0.263419 99.881004 178.950620 -0.192553 85.062762 5.575628 3.322012 9.173532 -3.687769 -2.378406 -3.799693 3.404123 7.253864 -6.274579 nan nan nan -4.780978 -5.040175 8.188865 4.946616 -2.672859 -4.238229 5.946798 -3.814713 -0.715560 nan nan nan -0.603046 1.188886 7.069384 1.107757 -2.763310 2.379762 1.467193 -0.483833 2.378348 -0.938282 -0.066945 -2.411338 1.500898 -2.843998 1.104175 -22.959172 1.561454 5.427921 -62.754279 -7.217571 10.528596 7.087819 -26.072953 13.393935 -5.126421 -10.201350 -12.747342 23.879753 4.217212 5.089134 59.943972 7.117659 13.073296 -6.747237 19.904489 0.652771 6.227891 4.302778 -10.433946 
5.603172 0.269974 99.884499 178.944062 -0.189297 85.048592 5.559893 3.269167 9.213655 -3.684345 -2.346759 -3.831541 3.440401 7.278405 -6.287712 nan nan nan -4.810963 -5.060260 8.189094 5.013006 -2.706866 -4.211270 5.983428 -3.784353 -0.680748 nan nan nan -0.593439 1.163696 7.119833 1.108203 -2.768894 2.378335 1.478936 -0.479251 2.362720 -0.951378 -0.012217 -2.348489 1.491891 -2.707824 0.986486 -23.013589 1.566380 5.422974 -62.768522 -7.246689 10.462839 7.097088 -25.978286 13.227075 -5.022856 -10.202399 -12.873856 23.832000 4.223879 5.096782 59.989017 7.174199 13.060162 -6.739206 19.813628 0.646976 6.196311 4.308620 -10.431397 
